<?xml version="1.0" encoding="UTF-8" standalone="no"?>
<!-- Created with Inkscape (http://www.inkscape.org/) -->

<svg
   width="25mm"
   height="25mm"
   viewBox="0 0 25 25"
   version="1.1"
   id="svg826"
   inkscape:version="1.3 (0e150ed6c4, 2023-07-21)"
   sodipodi:docname="TestKnob3.svg"
   xmlns:inkscape="http://www.inkscape.org/namespaces/inkscape"
   xmlns:sodipodi="http://sodipodi.sourceforge.net/DTD/sodipodi-0.dtd"
   xmlns="http://www.w3.org/2000/svg"
   xmlns:svg="http://www.w3.org/2000/svg"
   xmlns:rdf="http://www.w3.org/1999/02/22-rdf-syntax-ns#"
   xmlns:cc="http://creativecommons.org/ns#"
   xmlns:dc="http://purl.org/dc/elements/1.1/">
  <defs
     id="defs820">
    <clipPath
       clipPathUnits="userSpaceOnUse"
       id="clipPath55">
      <path
         id="path56"
         style="fill:#ff0000;fill-opacity:1;fill-rule:nonzero;stroke:none;stroke-width:0.264583"
         d="m 21.796428,276.17105 -6.854014,-1.8e-4 c 0.362386,0.14844 0.722852,0.30144 1.079592,0.46305 0.408296,0.18677 0.814931,0.37739 1.215446,0.58043 0.382235,0.19599 0.761451,0.3989 1.128083,0.62301 0.293833,0.1862 0.583123,0.38054 0.847669,0.60735 0.169595,0.14909 0.33733,0.30051 0.487835,0.46929 0.07997,0.0873 0.1578,0.17719 0.243231,0.25934 0.02624,0.0239 0.05309,0.0465 0.08085,0.0686 0.02237,0.0178 0.03136,0.0244 0.03135,0.0244 -0.0085,-0.004 -0.01591,-0.01 -0.0239,-0.0144 l -0.208149,0.34836 c 0.175837,-0.0836 0.350773,-0.16869 0.523437,-0.25904 0.101047,-0.0529 0.193027,-0.0772 0.272113,-0.0802 0.128276,-0.004 0.223725,0.0485 0.268859,0.12809 l 1.22e-4,-10e-4 c 0.07467,0.13315 0.01168,0.34128 -0.261776,0.48424 l -4.74e-4,1.6e-4 0.0021,0.004 c -0.01041,0.005 -0.02061,0.0111 -0.03098,0.0161 -0.01254,0.006 -0.02509,0.0127 -0.03761,0.0191 -0.01249,0.006 -0.02494,0.013 -0.03743,0.0196 l -0.0384,0.0199 c -0.01309,0.007 -0.02651,0.0129 -0.03955,0.0198 -0.01345,0.007 -0.0266,0.0146 -0.04,0.0216 -0.01105,0.006 -0.02226,0.0117 -0.03323,0.0175 l 6.77e-4,3.2e-4 c -0.0077,0.004 -0.01536,0.009 -0.02321,0.0133 -0.009,0.005 -0.01804,0.01 -0.02709,0.0147 -0.0086,0.005 -0.0178,0.009 -0.02647,0.0134 -0.0066,0.003 -0.01276,0.007 -0.01935,0.0103 -0.0017,8.6e-4 -0.0033,0.002 -0.005,0.003 -0.0025,9.8e-4 -0.0055,0.003 -0.008,0.005 -0.0091,0.005 -0.01833,0.0102 -0.0274,0.0154 -0.008,0.005 -0.01664,0.009 -0.02466,0.0138 -0.0067,0.004 -0.01279,0.008 -0.01949,0.0114 -0.0057,0.003 -0.01102,0.007 -0.01675,0.01 -0.005,0.003 -0.01029,0.005 -0.01534,0.008 -0.0027,8.9e-4 -0.0055,0.003 -0.0082,0.005 -2.9e-5,10e-6 2.01e-4,4.7e-4 1.79e-4,5e-4 0.0015,0.003 0.0029,0.005 0.0045,0.008 0.004,0.007 0.0082,0.0133 0.0121,0.0198 0.004,0.007 0.0078,0.0134 0.01162,0.02 0.0038,0.006 0.0076,0.0119 0.0114,0.0179 5.85e-4,9.1e-4 9.67e-4,0.002 0.0016,0.003 3.08e-4,4.2e-4 6.99e-4,8.4e-4 0.001,0.001 2.64e-4,4.4e-4 7.58e-4,8.6e-4 0.001,10e-4 6.94e-4,9.9e-4 10e-4,0.002 0.0017,0.003 0.0044,0.006 0.0092,0.0125 0.01339,0.0188 0.0034,0.005 0.0017,0.002 0.0051,0.008 l -0.0095,0.006 c 1.43e-4,3.1e-4 2.08e-4,6.6e-4 3.48e-4,9.7e-4 0.004,0.008 0.0079,0.0158 0.01188,0.0237 0.0038,0.008 0.0081,0.0152 0.0125,0.0224 0.0031,0.005 0.0014,0.003 0.0046,0.008 l -0.03828,0.0248 c -0.0018,-0.003 -0.002,-0.003 -0.0026,-0.004 l -0.01658,0.0104 c -0.0079,-0.012 -0.004,-0.006 -0.01206,-0.0182 l -0.03091,0.0255 c -0.0069,-0.008 -0.01374,-0.0166 -0.02057,-0.025 -0.01212,-0.0148 -0.02466,-0.0293 -0.03723,-0.0437 -0.0091,-0.0105 -0.01819,-0.0208 -0.02727,-0.0314 l -0.01119,0.0101 c 0.01016,0.0104 0.02063,0.0209 0.03102,0.0311 l -0.02136,0.0215 c -0.01085,-0.0106 -0.02197,-0.0213 -0.03252,-0.0322 -0.01899,-0.0195 -0.0374,-0.0381 -0.05605,-0.0578 -0.01,0.005 -0.0206,0.01 -0.03071,0.0139 -0.21357,0.0972 -0.377015,0.0732 -0.46944,-0.005 l -0.22666,0.37923 c -0.116265,-0.0733 -0.221645,-0.1613 -0.324614,-0.2519 -0.127512,-0.11497 -0.240468,-0.24452 -0.356537,-0.37059 -0.112702,-0.12729 -0.239878,-0.24048 -0.36752,-0.35234 -0.204228,-0.17167 -0.426955,-0.3183 -0.652222,-0.46041 -0.327195,-0.19809 -0.664604,-0.37908 -1.005032,-0.55319 -0.379994,-0.19238 -0.765592,-0.37321 -1.152897,-0.5503 -0.359503,-0.16277 -0.722364,-0.31732 -1.087842,-0.46611 -0.309435,-0.12593 -0.625345,-0.23626 -0.944596,-0.33437 -0.31032,-0.0949 -0.628648,-0.1564 -0.947601,-0.21349 -0.18326,-0.0344 -0.3678,-0.0557 -0.553025,-0.072 -0.171863,0.15121 -0.342661,0.30372 -0.512059,0.45769 -0.59994,0.55676 -1.176825,1.13767 -1.7478602,1.7238 -0.3163359,0.32707 -0.6308198,0.65541 -0.9437166,0.98577 l -0.4971915,-0.47085 c -0.086941,0.17262 -0.1765969,0.34387 -0.2632481,0.51665 -0.1702348,0.35011 -0.362164,0.68912 -0.5642237,1.02165 -0.2107864,0.35099 -0.4602002,0.67562 -0.7157852,0.99458 -0.2495493,0.30837 -0.5189075,0.59997 -0.787693,0.89144 -0.2067027,0.22004 -0.4010227,0.45056 -0.5517338,0.71272 -0.030921,0.0655 -0.062997,0.12742 -0.083631,0.19729 -0.036851,0.12477 -0.033199,0.27674 -0.030504,0.40502 0.016619,0.31255 0.094447,0.61665 0.1806531,0.9161 0.102862,0.36277 0.2760174,0.6977 0.4522339,1.02891 0.2077591,0.37781 0.4355929,0.74417 0.6688244,1.10667 0.2252263,0.34867 0.4557073,0.69392 0.6905877,1.03615 0.2155433,0.30976 0.4284012,0.62107 0.6433195,0.93125 0.1956357,0.27939 0.3814773,0.56583 0.5659805,0.85262 0.1646057,0.25787 0.3422744,0.50614 0.5301479,0.74742 0.1709251,0.21925 0.3617508,0.42141 0.5584226,0.61741 0.1692492,0.16532 0.3578108,0.30659 0.5609812,0.42691 0.2349013,0.13462 0.4963583,0.20695 0.7580513,0.26828 0.335138,0.0692 0.677431,0.0861 1.018649,0.0878 0.386376,0.002 0.768852,-0.0506 1.14795,-0.11996 0.404302,-0.0723 0.798891,-0.18397 1.189974,-0.30769 0.392661,-0.13216 0.780435,-0.27845 1.167719,-0.42549 0.375261,-0.14171 0.749517,-0.28658 1.120283,-0.43966 0.290474,-0.12091 0.578452,-0.24595 0.847732,-0.40926 0.148396,-0.0992 0.29272,-0.20763 0.418543,-0.33486 0.06084,-0.0615 0.134836,-0.15261 0.189054,-0.21727 0.239893,-0.30566 0.441626,-0.63853 0.64201,-0.97065 0.195147,-0.32934 0.380406,-0.66396 0.561802,-1.001 0.155893,-0.29209 0.32012,-0.58 0.48491,-0.86714 0.145866,-0.24916 0.303216,-0.49128 0.466642,-0.72921 0.132655,-0.19376 0.273776,-0.38176 0.408432,-0.57408 0.106299,-0.14377 0.203095,-0.29372 0.295746,-0.44652 0.05044,-0.0853 0.09464,-0.17466 0.128441,-0.26789 -0.0051,-4e-5 -0.01024,1.1e-4 -0.01536,6e-5 -0.608208,-0.006 -0.608452,-0.60746 -2.61e-4,-0.60106 0.04194,4.2e-4 0.08374,-6.2e-4 0.125655,-0.002 0.08084,-0.0539 0.179637,-0.12574 0.210157,-0.21666 -0.567452,0.21406 -0.750591,-0.3772 -0.175984,-0.57489 0.04781,-0.0164 0.09781,-0.0251 0.147218,-0.0351 0.01077,-0.003 0.0217,-0.002 0.03259,-0.004 -0.07828,-0.011 -0.156111,-0.0243 -0.233169,-0.0415 -0.09518,-0.0222 -0.191122,-0.0425 -0.283838,-0.0738 l 0.0174,-0.0491 c -0.02138,1.2e-4 -0.04268,-2.8e-4 -0.06393,-5.2e-4 -0.03531,-6.3e-4 -0.07034,-0.003 -0.105554,-0.005 -0.02984,-0.002 -0.06013,-0.003 -0.08979,-0.008 l 0.02132,-0.21158 c 0.02739,0.004 0.05522,0.005 0.08272,0.007 0.03165,0.002 0.06304,0.004 0.09478,0.005 0.03003,1.7e-4 0.06004,8.2e-4 0.09007,-1.5e-4 0.0167,-4.3e-4 0.03354,-3.1e-4 0.05029,-0.002 l 0.0064,-0.0188 c 0.018,0.006 0.03644,0.009 0.05463,0.0143 0.02684,-0.002 0.05414,-0.005 0.08107,-0.007 0.02241,-10e-4 0.04509,-1.1e-4 0.06751,-2.2e-4 0.0231,4.2e-4 0.04621,-2.5e-4 0.06922,0.003 0.01792,9.9e-4 0.03517,0.002 0.05306,0.004 0.01318,6.2e-4 0.02605,6e-5 0.03925,6.4e-4 0.0078,5e-5 0.02254,9.5e-4 0.0291,-7e-5 0.01027,-2.1e-4 0.02097,10e-4 0.03117,-0.002 0.01387,-10e-4 0.02734,7.1e-4 0.04119,-6e-5 0.01396,7e-5 0.02757,-2.3e-4 0.0415,-7.2e-4 0.01248,-0.002 0.02567,-6.4e-4 0.03824,-6.4e-4 0.01558,-5.9e-4 0.02979,5e-5 0.04539,-0.002 0.01339,-0.002 0.0307,-0.003 0.04504,-0.003 0.01162,-0.002 0.02384,7.6e-4 0.03559,-0.002 0.01688,-10e-4 0.03393,-4e-4 0.05082,-7.9e-4 0.01697,-3.5e-4 0.02176,-10e-4 0.03934,-0.002 0.01521,3e-4 0.02934,0.002 0.04468,0.002 0.01179,-1.8e-4 0.02323,-3.2e-4 0.03514,-6e-5 0.0074,-6e-5 0.01619,-1.4e-4 0.02565,-4.9e-4 0.01139,-6.1e-4 0.02299,0.002 0.03435,7.7e-4 0.01745,-2e-5 0.03503,-8.5e-4 0.05245,-8.3e-4 0.01549,-4e-4 0.03104,-0.002 0.04654,-0.002 0.01518,2.6e-4 0.0304,2.7e-4 0.04561,0 z m -1.446281,3.83916 c -0.0015,9.3e-4 -0.0028,0.001 -0.0042,0.002 0.0014,-7.2e-4 0.0028,-0.002 0.0042,-0.002 z m 1.020058,5.29107 c -0.02434,9.3e-4 -0.04823,0.002 -0.0725,0.003 l 0.07131,0.0209 c 2.66e-4,-0.003 6.85e-4,-0.005 9.43e-4,-0.008 4.99e-4,-0.005 -1.97e-4,-0.0107 2.5e-4,-0.016 z m 0.426512,1.47452 c -0.03409,0.0497 -0.06712,0.10013 -0.102835,0.14873 -0.08425,0.12002 -0.169586,0.23938 -0.254966,0.3587 -0.01253,0.0392 -0.02855,0.0775 -0.03757,0.11798 -0.0173,0.0684 -0.03467,0.13731 -0.05384,0.2052 -0.07425,0.26294 -0.231452,0.37142 -0.368401,0.36564 -0.02798,0.0456 -0.05699,0.0904 -0.08418,0.13649 -0.157745,0.27478 -0.315252,0.54997 -0.464443,0.82952 -0.193603,0.35962 -0.391457,0.71744 -0.599984,1.06866 -0.243753,0.40376 -0.491682,0.80673 -0.788743,1.17426 -0.130067,0.15193 -0.179723,0.21628 -0.324457,0.35799 -0.203272,0.19902 -0.432946,0.37009 -0.671739,0.52367 -0.162493,0.0963 -0.191077,0.11679 -0.359932,0.20212 -0.226218,0.11435 -0.461973,0.20871 -0.693775,0.31073 -0.342515,0.14137 -0.688277,0.27444 -1.034658,0.40595 l 5.83953,-1e-4 z m -12.9658428,-10.60484 -5.0362605,-1.8e-4 -4.91e-5,7.07322 c 0.035004,-0.0805 0.072538,-0.1601 0.1164639,-0.23718 0.03685,-0.0614 0.07162,-0.12416 0.1102735,-0.18439 0.1836518,-0.28613 0.409505,-0.54152 0.6378409,-0.7922 0.2444209,-0.26504 0.4892566,-0.52973 0.7166811,-0.80972 0.213683,-0.2663 0.42405,-0.53638 0.600117,-0.82967 0.1803553,-0.29586 0.3512958,-0.59739 0.5026476,-0.90928 0.1897119,-0.37824 0.3753032,-0.7586 0.5770071,-1.13068 0.2418645,-0.43787 0.4974798,-0.87062 0.8138899,-1.25974 0.2894316,-0.33769 0.6025655,-0.65604 0.9613886,-0.92018 z m -0.2419597,16.81051 c -0.089926,-0.0747 -0.1778236,-0.15185 -0.2612459,-0.2347 -0.024397,-0.0244 -0.047302,-0.0501 -0.071518,-0.0747 l -0.097951,0.27774 C 7.9672364,292.87751 7.797237,292.7625 7.6301016,292.6473 7.3673242,292.46619 7.137323,292.24441 6.9152346,292.01666 6.627392,291.71587 6.3742639,291.38563 6.1328242,291.04723 5.8507811,290.648 5.615222,290.21951 5.3869294,289.78819 5.2392408,289.50367 5.31225,289.64477 5.1688135,289.36425 l 0.4990142,-0.25515 c -0.181501,-0.26808 -0.363254,-0.53604 -0.5388662,-0.80801 -0.2565015,-0.39914 -0.5071999,-0.80259 -0.734754,-1.21911 -0.2270039,-0.42828 -0.4430276,-0.86376 -0.5746333,-1.3325 -0.0088,-0.0311 -0.016501,-0.0625 -0.025081,-0.0937 l -7.22e-5,7.32545 z" />
    </clipPath>
    <clipPath
       clipPathUnits="userSpaceOnUse"
       id="clipPath55-6">
      <path
         id="path56-6"
         style="fill:#ff0000;fill-opacity:1;fill-rule:nonzero;stroke:none;stroke-width:0.264583"
         d="m 21.796428,276.17105 -6.854014,-1.8e-4 c 0.362386,0.14844 0.722852,0.30144 1.079592,0.46305 0.408296,0.18677 0.814931,0.37739 1.215446,0.58043 0.382235,0.19599 0.761451,0.3989 1.128083,0.62301 0.293833,0.1862 0.583123,0.38054 0.847669,0.60735 0.169595,0.14909 0.33733,0.30051 0.487835,0.46929 0.07997,0.0873 0.1578,0.17719 0.243231,0.25934 0.02624,0.0239 0.05309,0.0465 0.08085,0.0686 0.02237,0.0178 0.03136,0.0244 0.03135,0.0244 -0.0085,-0.004 -0.01591,-0.01 -0.0239,-0.0144 l -0.208149,0.34836 c 0.175837,-0.0836 0.350773,-0.16869 0.523437,-0.25904 0.101047,-0.0529 0.193027,-0.0772 0.272113,-0.0802 0.128276,-0.004 0.223725,0.0485 0.268859,0.12809 l 1.22e-4,-10e-4 c 0.07467,0.13315 0.01168,0.34128 -0.261776,0.48424 l -4.74e-4,1.6e-4 0.0021,0.004 c -0.01041,0.005 -0.02061,0.0111 -0.03098,0.0161 -0.01254,0.006 -0.02509,0.0127 -0.03761,0.0191 -0.01249,0.006 -0.02494,0.013 -0.03743,0.0196 l -0.0384,0.0199 c -0.01309,0.007 -0.02651,0.0129 -0.03955,0.0198 -0.01345,0.007 -0.0266,0.0146 -0.04,0.0216 -0.01105,0.006 -0.02226,0.0117 -0.03323,0.0175 l 6.77e-4,3.2e-4 c -0.0077,0.004 -0.01536,0.009 -0.02321,0.0133 -0.009,0.005 -0.01804,0.01 -0.02709,0.0147 -0.0086,0.005 -0.0178,0.009 -0.02647,0.0134 -0.0066,0.003 -0.01276,0.007 -0.01935,0.0103 -0.0017,8.6e-4 -0.0033,0.002 -0.005,0.003 -0.0025,9.8e-4 -0.0055,0.003 -0.008,0.005 -0.0091,0.005 -0.01833,0.0102 -0.0274,0.0154 -0.008,0.005 -0.01664,0.009 -0.02466,0.0138 -0.0067,0.004 -0.01279,0.008 -0.01949,0.0114 -0.0057,0.003 -0.01102,0.007 -0.01675,0.01 -0.005,0.003 -0.01029,0.005 -0.01534,0.008 -0.0027,8.9e-4 -0.0055,0.003 -0.0082,0.005 -2.9e-5,10e-6 2.01e-4,4.7e-4 1.79e-4,5e-4 0.0015,0.003 0.0029,0.005 0.0045,0.008 0.004,0.007 0.0082,0.0133 0.0121,0.0198 0.004,0.007 0.0078,0.0134 0.01162,0.02 0.0038,0.006 0.0076,0.0119 0.0114,0.0179 5.85e-4,9.1e-4 9.67e-4,0.002 0.0016,0.003 3.08e-4,4.2e-4 6.99e-4,8.4e-4 0.001,0.001 2.64e-4,4.4e-4 7.58e-4,8.6e-4 0.001,10e-4 6.94e-4,9.9e-4 10e-4,0.002 0.0017,0.003 0.0044,0.006 0.0092,0.0125 0.01339,0.0188 0.0034,0.005 0.0017,0.002 0.0051,0.008 l -0.0095,0.006 c 1.43e-4,3.1e-4 2.08e-4,6.6e-4 3.48e-4,9.7e-4 0.004,0.008 0.0079,0.0158 0.01188,0.0237 0.0038,0.008 0.0081,0.0152 0.0125,0.0224 0.0031,0.005 0.0014,0.003 0.0046,0.008 l -0.03828,0.0248 c -0.0018,-0.003 -0.002,-0.003 -0.0026,-0.004 l -0.01658,0.0104 c -0.0079,-0.012 -0.004,-0.006 -0.01206,-0.0182 l -0.03091,0.0255 c -0.0069,-0.008 -0.01374,-0.0166 -0.02057,-0.025 -0.01212,-0.0148 -0.02466,-0.0293 -0.03723,-0.0437 -0.0091,-0.0105 -0.01819,-0.0208 -0.02727,-0.0314 l -0.01119,0.0101 c 0.01016,0.0104 0.02063,0.0209 0.03102,0.0311 l -0.02136,0.0215 c -0.01085,-0.0106 -0.02197,-0.0213 -0.03252,-0.0322 -0.01899,-0.0195 -0.0374,-0.0381 -0.05605,-0.0578 -0.01,0.005 -0.0206,0.01 -0.03071,0.0139 -0.21357,0.0972 -0.377015,0.0732 -0.46944,-0.005 l -0.22666,0.37923 c -0.116265,-0.0733 -0.221645,-0.1613 -0.324614,-0.2519 -0.127512,-0.11497 -0.240468,-0.24452 -0.356537,-0.37059 -0.112702,-0.12729 -0.239878,-0.24048 -0.36752,-0.35234 -0.204228,-0.17167 -0.426955,-0.3183 -0.652222,-0.46041 -0.327195,-0.19809 -0.664604,-0.37908 -1.005032,-0.55319 -0.379994,-0.19238 -0.765592,-0.37321 -1.152897,-0.5503 -0.359503,-0.16277 -0.722364,-0.31732 -1.087842,-0.46611 -0.309435,-0.12593 -0.625345,-0.23626 -0.944596,-0.33437 -0.31032,-0.0949 -0.628648,-0.1564 -0.947601,-0.21349 -0.18326,-0.0344 -0.3678,-0.0557 -0.553025,-0.072 -0.171863,0.15121 -0.342661,0.30372 -0.512059,0.45769 -0.59994,0.55676 -1.176825,1.13767 -1.7478602,1.7238 -0.3163359,0.32707 -0.6308198,0.65541 -0.9437166,0.98577 l -0.4971915,-0.47085 c -0.086941,0.17262 -0.1765969,0.34387 -0.2632481,0.51665 -0.1702348,0.35011 -0.362164,0.68912 -0.5642237,1.02165 -0.2107864,0.35099 -0.4602002,0.67562 -0.7157852,0.99458 -0.2495493,0.30837 -0.5189075,0.59997 -0.787693,0.89144 -0.2067027,0.22004 -0.4010227,0.45056 -0.5517338,0.71272 -0.030921,0.0655 -0.062997,0.12742 -0.083631,0.19729 -0.036851,0.12477 -0.033199,0.27674 -0.030504,0.40502 0.016619,0.31255 0.094447,0.61665 0.1806531,0.9161 0.102862,0.36277 0.2760174,0.6977 0.4522339,1.02891 0.2077591,0.37781 0.4355929,0.74417 0.6688244,1.10667 0.2252263,0.34867 0.4557073,0.69392 0.6905877,1.03615 0.2155433,0.30976 0.4284012,0.62107 0.6433195,0.93125 0.1956357,0.27939 0.3814773,0.56583 0.5659805,0.85262 0.1646057,0.25787 0.3422744,0.50614 0.5301479,0.74742 0.1709251,0.21925 0.3617508,0.42141 0.5584226,0.61741 0.1692492,0.16532 0.3578108,0.30659 0.5609812,0.42691 0.2349013,0.13462 0.4963583,0.20695 0.7580513,0.26828 0.335138,0.0692 0.677431,0.0861 1.018649,0.0878 0.386376,0.002 0.768852,-0.0506 1.14795,-0.11996 0.404302,-0.0723 0.798891,-0.18397 1.189974,-0.30769 0.392661,-0.13216 0.780435,-0.27845 1.167719,-0.42549 0.375261,-0.14171 0.749517,-0.28658 1.120283,-0.43966 0.290474,-0.12091 0.578452,-0.24595 0.847732,-0.40926 0.148396,-0.0992 0.29272,-0.20763 0.418543,-0.33486 0.06084,-0.0615 0.134836,-0.15261 0.189054,-0.21727 0.239893,-0.30566 0.441626,-0.63853 0.64201,-0.97065 0.195147,-0.32934 0.380406,-0.66396 0.561802,-1.001 0.155893,-0.29209 0.32012,-0.58 0.48491,-0.86714 0.145866,-0.24916 0.303216,-0.49128 0.466642,-0.72921 0.132655,-0.19376 0.273776,-0.38176 0.408432,-0.57408 0.106299,-0.14377 0.203095,-0.29372 0.295746,-0.44652 0.05044,-0.0853 0.09464,-0.17466 0.128441,-0.26789 -0.0051,-4e-5 -0.01024,1.1e-4 -0.01536,6e-5 -0.608208,-0.006 -0.608452,-0.60746 -2.61e-4,-0.60106 0.04194,4.2e-4 0.08374,-6.2e-4 0.125655,-0.002 0.08084,-0.0539 0.179637,-0.12574 0.210157,-0.21666 -0.567452,0.21406 -0.750591,-0.3772 -0.175984,-0.57489 0.04781,-0.0164 0.09781,-0.0251 0.147218,-0.0351 0.01077,-0.003 0.0217,-0.002 0.03259,-0.004 -0.07828,-0.011 -0.156111,-0.0243 -0.233169,-0.0415 -0.09518,-0.0222 -0.191122,-0.0425 -0.283838,-0.0738 l 0.0174,-0.0491 c -0.02138,1.2e-4 -0.04268,-2.8e-4 -0.06393,-5.2e-4 -0.03531,-6.3e-4 -0.07034,-0.003 -0.105554,-0.005 -0.02984,-0.002 -0.06013,-0.003 -0.08979,-0.008 l 0.02132,-0.21158 c 0.02739,0.004 0.05522,0.005 0.08272,0.007 0.03165,0.002 0.06304,0.004 0.09478,0.005 0.03003,1.7e-4 0.06004,8.2e-4 0.09007,-1.5e-4 0.0167,-4.3e-4 0.03354,-3.1e-4 0.05029,-0.002 l 0.0064,-0.0188 c 0.018,0.006 0.03644,0.009 0.05463,0.0143 0.02684,-0.002 0.05414,-0.005 0.08107,-0.007 0.02241,-10e-4 0.04509,-1.1e-4 0.06751,-2.2e-4 0.0231,4.2e-4 0.04621,-2.5e-4 0.06922,0.003 0.01792,9.9e-4 0.03517,0.002 0.05306,0.004 0.01318,6.2e-4 0.02605,6e-5 0.03925,6.4e-4 0.0078,5e-5 0.02254,9.5e-4 0.0291,-7e-5 0.01027,-2.1e-4 0.02097,10e-4 0.03117,-0.002 0.01387,-10e-4 0.02734,7.1e-4 0.04119,-6e-5 0.01396,7e-5 0.02757,-2.3e-4 0.0415,-7.2e-4 0.01248,-0.002 0.02567,-6.4e-4 0.03824,-6.4e-4 0.01558,-5.9e-4 0.02979,5e-5 0.04539,-0.002 0.01339,-0.002 0.0307,-0.003 0.04504,-0.003 0.01162,-0.002 0.02384,7.6e-4 0.03559,-0.002 0.01688,-10e-4 0.03393,-4e-4 0.05082,-7.9e-4 0.01697,-3.5e-4 0.02176,-10e-4 0.03934,-0.002 0.01521,3e-4 0.02934,0.002 0.04468,0.002 0.01179,-1.8e-4 0.02323,-3.2e-4 0.03514,-6e-5 0.0074,-6e-5 0.01619,-1.4e-4 0.02565,-4.9e-4 0.01139,-6.1e-4 0.02299,0.002 0.03435,7.7e-4 0.01745,-2e-5 0.03503,-8.5e-4 0.05245,-8.3e-4 0.01549,-4e-4 0.03104,-0.002 0.04654,-0.002 0.01518,2.6e-4 0.0304,2.7e-4 0.04561,0 z m -1.446281,3.83916 c -0.0015,9.3e-4 -0.0028,0.001 -0.0042,0.002 0.0014,-7.2e-4 0.0028,-0.002 0.0042,-0.002 z m 1.020058,5.29107 c -0.02434,9.3e-4 -0.04823,0.002 -0.0725,0.003 l 0.07131,0.0209 c 2.66e-4,-0.003 6.85e-4,-0.005 9.43e-4,-0.008 4.99e-4,-0.005 -1.97e-4,-0.0107 2.5e-4,-0.016 z m 0.426512,1.47452 c -0.03409,0.0497 -0.06712,0.10013 -0.102835,0.14873 -0.08425,0.12002 -0.169586,0.23938 -0.254966,0.3587 -0.01253,0.0392 -0.02855,0.0775 -0.03757,0.11798 -0.0173,0.0684 -0.03467,0.13731 -0.05384,0.2052 -0.07425,0.26294 -0.231452,0.37142 -0.368401,0.36564 -0.02798,0.0456 -0.05699,0.0904 -0.08418,0.13649 -0.157745,0.27478 -0.315252,0.54997 -0.464443,0.82952 -0.193603,0.35962 -0.391457,0.71744 -0.599984,1.06866 -0.243753,0.40376 -0.491682,0.80673 -0.788743,1.17426 -0.130067,0.15193 -0.179723,0.21628 -0.324457,0.35799 -0.203272,0.19902 -0.432946,0.37009 -0.671739,0.52367 -0.162493,0.0963 -0.191077,0.11679 -0.359932,0.20212 -0.226218,0.11435 -0.461973,0.20871 -0.693775,0.31073 -0.342515,0.14137 -0.688277,0.27444 -1.034658,0.40595 l 5.83953,-1e-4 z m -12.9658428,-10.60484 -5.0362605,-1.8e-4 -4.91e-5,7.07322 c 0.035004,-0.0805 0.072538,-0.1601 0.1164639,-0.23718 0.03685,-0.0614 0.07162,-0.12416 0.1102735,-0.18439 0.1836518,-0.28613 0.409505,-0.54152 0.6378409,-0.7922 0.2444209,-0.26504 0.4892566,-0.52973 0.7166811,-0.80972 0.213683,-0.2663 0.42405,-0.53638 0.600117,-0.82967 0.1803553,-0.29586 0.3512958,-0.59739 0.5026476,-0.90928 0.1897119,-0.37824 0.3753032,-0.7586 0.5770071,-1.13068 0.2418645,-0.43787 0.4974798,-0.87062 0.8138899,-1.25974 0.2894316,-0.33769 0.6025655,-0.65604 0.9613886,-0.92018 z m -0.2419597,16.81051 c -0.089926,-0.0747 -0.1778236,-0.15185 -0.2612459,-0.2347 -0.024397,-0.0244 -0.047302,-0.0501 -0.071518,-0.0747 l -0.097951,0.27774 C 7.9672364,292.87751 7.797237,292.7625 7.6301016,292.6473 7.3673242,292.46619 7.137323,292.24441 6.9152346,292.01666 6.627392,291.71587 6.3742639,291.38563 6.1328242,291.04723 5.8507811,290.648 5.615222,290.21951 5.3869294,289.78819 5.2392408,289.50367 5.31225,289.64477 5.1688135,289.36425 l 0.4990142,-0.25515 c -0.181501,-0.26808 -0.363254,-0.53604 -0.5388662,-0.80801 -0.2565015,-0.39914 -0.5071999,-0.80259 -0.734754,-1.21911 -0.2270039,-0.42828 -0.4430276,-0.86376 -0.5746333,-1.3325 -0.0088,-0.0311 -0.016501,-0.0625 -0.025081,-0.0937 l -7.22e-5,7.32545 z" />
    </clipPath>
  </defs>
  <sodipodi:namedview
     id="base"
     pagecolor="#ffffff"
     bordercolor="#666666"
     borderopacity="1.0"
     inkscape:pageopacity="0.0"
     inkscape:pageshadow="2"
     inkscape:zoom="4"
     inkscape:cx="-29.375"
     inkscape:cy="41.375"
     inkscape:document-units="mm"
     inkscape:current-layer="layer1"
     showgrid="false"
     inkscape:snap-tangential="true"
     inkscape:snap-path-clip="false"
     gridtolerance="10"
     inkscape:snap-others="false"
     inkscape:snap-intersection-paths="true"
     inkscape:window-width="1920"
     inkscape:window-height="1001"
     inkscape:window-x="-9"
     inkscape:window-y="-9"
     inkscape:window-maximized="1"
     borderlayer="true"
     inkscape:showpageshadow="2"
     inkscape:pagecheckerboard="0"
     inkscape:deskcolor="#d1d1d1"
     showguides="true">
    <inkscape:grid
       type="xygrid"
       id="grid5078"
       units="mm"
       spacingx="0.19999999"
       spacingy="0.19999999"
       snapvisiblegridlinesonly="false"
       originx="0"
       originy="0"
       visible="false" />
    <sodipodi:guide
       position="-6.8255444,18.100798"
       orientation="1,0"
       id="guide56"
       inkscape:locked="false" />
  </sodipodi:namedview>
  <metadata
     id="metadata823">
    <rdf:RDF>
      <cc:Work
         rdf:about="">
        <dc:format>image/svg+xml</dc:format>
        <dc:type
           rdf:resource="http://purl.org/dc/dcmitype/StillImage" />
      </cc:Work>
    </rdf:RDF>
  </metadata>
  <g
     inkscape:label="Layer 1"
     inkscape:groupmode="layer"
     id="layer1"
     transform="translate(0.04479882,-271.98412)">
    <path
       sodipodi:type="star"
       style="display:none;fill:#0d08cc;fill-opacity:1;stroke:none;stroke-width:0.02;stroke-dasharray:none;stroke-opacity:1"
       id="path59"
       inkscape:flatsided="true"
       sodipodi:sides="3"
       sodipodi:cx="34.251968"
       sodipodi:cy="13.746719"
       sodipodi:r1="8.0290136"
       sodipodi:r2="1.7663831"
       sodipodi:arg1="0.6753791"
       sodipodi:arg2="1.7225767"
       inkscape:rounded="0.03"
       inkscape:randomized="0"
       d="M 40.518373,18.766404 C 40.257542,19.092016 26.923164,17.052434 26.771592,16.663742 26.620019,16.27505 35.053538,5.7469317 35.465941,5.8100116 c 0.412403,0.06308 5.313262,12.6307804 5.052432,12.9563924 z"
       transform="matrix(0.25625319,0.06586836,-0.06586836,0.25625319,2.076905,271.01466)"
       inkscape:transform-center-x="0.41080213"
       inkscape:transform-center-y="-0.13043821" />
    <ellipse
       style="display:none;opacity:0.673786;fill:#100af5;fill-opacity:1;stroke:none;stroke-width:0.161909;stroke-dasharray:none;stroke-opacity:1"
       id="path63"
       cx="12.455204"
       cy="277.33047"
       rx="4.4980412"
       ry="1.9754387" />
    <rect
       style="display:none;fill:#0d08cc;fill-opacity:1;stroke-width:0.077;stroke-dasharray:none;stroke-opacity:0.87451"
       id="rect56"
       width="4.0409646"
       height="1.4156747"
       x="10.434722"
       y="274.73508"
       ry="0.70783734" />
    <path
       sodipodi:type="star"
       style="display:none;fill:#0d08cc;fill-opacity:1;stroke:none;stroke-width:0.02;stroke-dasharray:none;stroke-opacity:1"
       id="path59-3"
       inkscape:flatsided="true"
       sodipodi:sides="3"
       sodipodi:cx="34.251968"
       sodipodi:cy="13.746719"
       sodipodi:r1="8.0290136"
       sodipodi:r2="1.7663831"
       sodipodi:arg1="0.6753791"
       sodipodi:arg2="1.7225767"
       inkscape:rounded="0.03"
       inkscape:randomized="0"
       d="M 40.518373,18.766404 C 40.257542,19.092016 26.923164,17.052434 26.771592,16.663742 26.620019,16.27505 35.053538,5.7469317 35.465941,5.8100116 c 0.412403,0.06308 5.313262,12.6307804 5.052432,12.9563924 z"
       transform="matrix(0.01461833,0.26417919,-0.26417919,0.01461833,17.933268,267.43577)"
       inkscape:transform-center-x="-0.43633391"
       inkscape:transform-center-y="-0.10269551" />
    <path
       id="path1"
       style="display:inline;fill:#742700;stroke-width:0.793749;fill-opacity:1"
       d="m -250.21144,117.97191 a 8.958333,8.958333 0 0 1 -8.95833,8.95833 8.958333,8.958333 0 0 1 -8.95833,-8.95833 8.958333,8.958333 0 0 1 8.95833,-8.95833 8.958333,8.958333 0 0 1 8.95833,8.95833 z"
       transform="rotate(-68.032276)" />
    <path
       id="circle3"
       style="display:inline;fill:#0a0a1b;stroke-width:0.759462;stroke-dasharray:none"
       d="M 15.63643,276.51616 A 8.5665477,8.5665477 0 0 1 20.376384,287.66533 8.5665477,8.5665477 0 0 1 9.2272096,292.40529 8.5665477,8.5665477 0 0 1 4.4872423,281.25612 8.5665477,8.5665477 0 0 1 15.63643,276.51616 Z" />
    <path
       style="display:inline;opacity:1;fill:none;fill-opacity:1;stroke:#f35100;stroke-width:0.37;stroke-dasharray:none;stroke-dashoffset:0;stroke-opacity:1"
       d="m 12.455204,283.71866 c 0,-7.82445 0,-7.82445 0,-7.82445"
       id="path64" />
    <circle
       style="display:inline;fill:#282828;fill-opacity:0.71831;stroke:#5d5d5d;stroke-width:0.02;stroke-dasharray:none;stroke-opacity:1"
       id="path58"
       cx="12.455204"
       cy="284.4841"
       r="0.76544094" />
  </g>
</svg>
